<?xml version="1.0" encoding="UTF-8"?>
<!DOCTYPE svg PUBLIC "-//W3C//DTD SVG 1.1//EN" "http://www.w3.org/Graphics/SVG/1.1/DTD/svg11.dtd">
<svg xmlns="http://www.w3.org/2000/svg" version="1.1" width="240px" height="240px" style="shape-rendering:geometricPrecision; text-rendering:geometricPrecision; image-rendering:optimizeQuality; fill-rule:evenodd; clip-rule:evenodd" xmlns:xlink="http://www.w3.org/1999/xlink">
<g><path style="opacity:1" fill="#fa6d7c" d="M 80.5,-0.5 C 110.833,-0.5 141.167,-0.5 171.5,-0.5C 169.027,1.14316 167.027,3.30982 165.5,6C 166.328,6.91471 167.328,7.58138 168.5,8C 139.835,8.49998 111.169,8.66664 82.5,8.5C 79.5,7.90724 76.5,7.07391 73.5,6C 76.3576,4.30594 78.691,2.13927 80.5,-0.5 Z"/></g>
<g><path style="opacity:1" fill="#f3586a" d="M 171.5,-0.5 C 182.167,-0.5 192.833,-0.5 203.5,-0.5C 211.961,1.39782 219.294,5.39782 225.5,11.5C 223.507,13.4668 221.507,15.4668 219.5,17.5C 218.614,18.325 218.281,19.325 218.5,20.5C 212.856,15.2172 206.19,11.7172 198.5,10C 178.836,9.50005 159.169,9.33338 139.5,9.5C 107.833,9.5 76.1667,9.5 44.5,9.5C 56.989,8.50465 69.6557,8.17132 82.5,8.5C 111.169,8.66664 139.835,8.49998 168.5,8C 167.328,7.58138 166.328,6.91471 165.5,6C 167.027,3.30982 169.027,1.14316 171.5,-0.5 Z"/></g>
<g><path style="opacity:1" fill="#b40e23" d="M 44.5,9.5 C 76.1667,9.5 107.833,9.5 139.5,9.5C 133.315,10.2881 126.982,10.9548 120.5,11.5C 119.629,14.7109 117.629,17.0443 114.5,18.5C 120.988,19.1668 127.321,19.8334 133.5,20.5C 103.165,20.3334 72.8315,20.5 42.5,21C 31.241,24.0914 24.241,31.2581 21.5,42.5C 20.5028,62.6598 20.1695,82.9931 20.5,103.5C 20.6659,108.511 20.4993,113.511 20,118.5C 19.6667,116.833 19.3333,115.167 19,113.5C 16.7046,116.797 14.038,119.797 11,122.5C 10.8261,127.684 10.3261,132.684 9.5,137.5C 9.5,106.5 9.5,75.5 9.5,44.5C 12.8333,24.5 24.5,12.8333 44.5,9.5 Z"/></g>
<g><path style="opacity:1" fill="#fa848f" d="M 35.5,-0.5 C 50.5,-0.5 65.5,-0.5 80.5,-0.5C 78.691,2.13927 76.3576,4.30594 73.5,6C 76.5,7.07391 79.5,7.90724 82.5,8.5C 69.6557,8.17132 56.989,8.50465 44.5,9.5C 24.5,12.8333 12.8333,24.5 9.5,44.5C 8.50465,56.989 8.17132,69.6557 8.5,82.5C 7.83404,79.6417 7.16738,76.6417 6.5,73.5C 3.93202,75.6729 1.59869,78.0062 -0.5,80.5C -0.5,65.5 -0.5,50.5 -0.5,35.5C 4.5,16.5 16.5,4.5 35.5,-0.5 Z"/></g>
<g><path style="opacity:1" fill="#f93d57" d="M 133.5,20.5 C 153.503,20.3334 173.503,20.5 193.5,21C 205.772,23.2706 213.606,30.4373 217,42.5C 217.61,51.8495 217.444,61.1828 216.5,70.5C 204.641,69.6912 193.308,69.6912 182.5,70.5C 182.174,64.3198 179.174,59.8198 173.5,57C 171.5,56.3333 169.5,56.3333 167.5,57C 164.249,60.7585 160.582,63.9251 156.5,66.5C 148.745,61.7918 140.412,58.4585 131.5,56.5C 130.671,51.5329 130.171,46.5329 130,41.5C 129.167,39.3333 127.667,37.8333 125.5,37C 121.5,36.3333 117.5,36.3333 113.5,37C 112.333,38.1667 111.167,39.3333 110,40.5C 109.501,45.8229 109.334,51.1563 109.5,56.5C 100.035,58.155 91.2017,61.4884 83,66.5C 79.5471,64.0505 76.3805,61.2171 73.5,58C 71.3046,56.627 68.9712,56.2937 66.5,57C 60.8265,59.8198 57.8265,64.3198 57.5,70.5C 57.631,71.2389 57.4643,71.9056 57,72.5C 54.845,70.8328 52.345,69.8328 49.5,69.5C 42.525,70.2233 35.1916,70.2233 27.5,69.5C 25.2674,69.8645 23.434,70.8645 22,72.5C 21.5002,62.5056 21.3335,52.5056 21.5,42.5C 24.241,31.2581 31.241,24.0914 42.5,21C 72.8315,20.5 103.165,20.3334 133.5,20.5 Z"/></g>
<g><path style="opacity:1" fill="#231e1f" d="M 182.5,70.5 C 178.884,74.454 175.217,78.454 171.5,82.5C 176.652,90.1371 180.152,98.4705 182,107.5C 187.417,108.309 192.917,108.809 198.5,109C 200.049,110.214 201.215,111.714 202,113.5C 202.498,116.817 202.665,120.15 202.5,123.5C 201.404,125.103 200.07,126.603 198.5,128C 192.917,128.191 187.417,128.691 182,129.5C 179.877,138.743 176.377,147.409 171.5,155.5C 171.855,156.522 172.522,157.189 173.5,157.5C 176.129,160.631 178.962,163.631 182,166.5C 182.706,168.971 182.373,171.305 181,173.5C 178.185,177.159 174.685,179.826 170.5,181.5C 169.062,181.281 167.729,180.781 166.5,180C 163.287,176.451 159.787,173.284 156,170.5C 148.215,175.642 139.715,178.976 130.5,180.5C 130.904,186.29 130.404,191.956 129,197.5C 124.108,201.776 118.608,202.61 112.5,200C 111.299,199.097 110.465,197.931 110,196.5C 109.501,191.177 109.334,185.844 109.5,180.5C 100.168,178.944 91.5009,175.611 83.5,170.5C 80.0154,173.484 76.682,176.651 73.5,180C 70.8333,182 68.1667,182 65.5,180C 63.6499,177.982 61.6499,176.149 59.5,174.5C 57.7751,172.043 57.2751,169.377 58,166.5C 61.3709,163.297 64.5375,159.964 67.5,156.5C 68.0431,156.44 68.3764,156.107 68.5,155.5C 62.9091,147.314 59.2424,138.314 57.5,128.5C 52.1563,128.666 46.8229,128.499 41.5,128C 39.8065,126.75 38.4732,125.25 37.5,123.5C 37.335,120.15 37.5017,116.817 38,113.5C 38.7845,111.714 39.9512,110.214 41.5,109C 46.8229,108.501 52.1563,108.334 57.5,108.5C 59.0945,98.8105 62.7611,89.9772 68.5,82C 64.6019,78.2712 60.9352,74.4379 57.5,70.5C 57.8265,64.3198 60.8265,59.8198 66.5,57C 68.9712,56.2937 71.3046,56.627 73.5,58C 76.3805,61.2171 79.5471,64.0505 83,66.5C 91.2017,61.4884 100.035,58.155 109.5,56.5C 109.334,51.1563 109.501,45.8229 110,40.5C 111.167,39.3333 112.333,38.1667 113.5,37C 117.5,36.3333 121.5,36.3333 125.5,37C 127.667,37.8333 129.167,39.3333 130,41.5C 130.171,46.5329 130.671,51.5329 131.5,56.5C 140.412,58.4585 148.745,61.7918 156.5,66.5C 160.582,63.9251 164.249,60.7585 167.5,57C 169.5,56.3333 171.5,56.3333 173.5,57C 179.174,59.8198 182.174,64.3198 182.5,70.5 Z"/></g>
<g><path style="opacity:1" fill="#f3f3f3" d="M 98.5,77.5 C 101.85,77.335 105.183,77.5017 108.5,78C 109.308,78.3076 109.975,78.8076 110.5,79.5C 100.094,87.2856 91.2602,96.6189 84,107.5C 79.9403,93.2844 84.7736,83.2844 98.5,77.5 Z"/></g>
<g><path style="opacity:1" fill="#e12c41" d="M 21.5,42.5 C 21.3335,52.5056 21.5002,62.5056 22,72.5C 23.434,70.8645 25.2674,69.8645 27.5,69.5C 35.1916,70.2233 42.525,70.2233 49.5,69.5C 52.345,69.8328 54.845,70.8328 57,72.5C 57.4643,71.9056 57.631,71.2389 57.5,70.5C 60.9352,74.4379 64.6019,78.2712 68.5,82C 62.7611,89.9772 59.0945,98.8105 57.5,108.5C 52.1563,108.334 46.8229,108.501 41.5,109C 39.9512,110.214 38.7845,111.714 38,113.5C 37.5017,116.817 37.335,120.15 37.5,123.5C 37.631,124.239 37.4643,124.906 37,125.5C 31.8772,124.564 26.8772,124.564 22,125.5C 21.8288,117.989 21.3288,110.655 20.5,103.5C 20.1695,82.9931 20.5028,62.6598 21.5,42.5 Z"/></g>
<g><path style="opacity:1" fill="#df2d41" d="M 139.5,9.5 C 159.169,9.33338 178.836,9.50005 198.5,10C 206.19,11.7172 212.856,15.2172 218.5,20.5C 222.945,25.7176 226.111,31.7176 228,38.5C 228.667,61.1667 228.667,83.8333 228,106.5C 226.984,105.366 226.317,105.699 226,107.5C 225.667,106.833 225.333,106.167 225,105.5C 224.51,106.793 224.343,108.127 224.5,109.5C 222.09,109.921 220.257,111.254 219,113.5C 218.667,112.5 218.333,111.5 218,110.5C 217.5,117.492 217.334,124.492 217.5,131.5C 216.683,129.031 216.183,126.365 216,123.5C 212.72,124.246 209.386,124.913 206,125.5C 204.85,124.576 203.85,124.576 203,125.5C 202.536,124.906 202.369,124.239 202.5,123.5C 202.665,120.15 202.498,116.817 202,113.5C 201.215,111.714 200.049,110.214 198.5,109C 192.917,108.809 187.417,108.309 182,107.5C 180.152,98.4705 176.652,90.1371 171.5,82.5C 175.217,78.454 178.884,74.454 182.5,70.5C 193.308,69.6912 204.641,69.6912 216.5,70.5C 217.444,61.1828 217.61,51.8495 217,42.5C 213.606,30.4373 205.772,23.2706 193.5,21C 173.503,20.5 153.503,20.3334 133.5,20.5C 127.321,19.8334 120.988,19.1668 114.5,18.5C 117.629,17.0443 119.629,14.7109 120.5,11.5C 126.982,10.9548 133.315,10.2881 139.5,9.5 Z"/></g>
<g><path style="opacity:1" fill="#fa6d7c" d="M 8.5,82.5 C 8.66664,111.169 8.49998,139.835 8,168.5C 7.66667,167.167 7.33333,165.833 7,164.5C 5.84555,165.743 4.51221,166.743 3,167.5C 1.19876,169.64 0.0320947,171.64 -0.5,173.5C -0.5,142.5 -0.5,111.5 -0.5,80.5C 1.59869,78.0062 3.93202,75.6729 6.5,73.5C 7.16738,76.6417 7.83404,79.6417 8.5,82.5 Z"/></g>
<g><path style="opacity:1" fill="#c81b2a" d="M 202.5,123.5 C 202.369,124.239 202.536,124.906 203,125.5C 203.85,124.576 204.85,124.576 206,125.5C 209.386,124.913 212.72,124.246 216,123.5C 216.183,126.365 216.683,129.031 217.5,131.5C 217.831,152.34 217.497,173.007 216.5,193.5C 216.667,180.496 216.5,167.496 216,154.5C 215.781,155.938 215.281,157.271 214.5,158.5C 205.52,158.494 196.52,158.494 187.5,158.5C 183.926,158.309 180.593,157.309 177.5,155.5C 175.974,155.994 174.641,156.661 173.5,157.5C 172.522,157.189 171.855,156.522 171.5,155.5C 176.377,147.409 179.877,138.743 182,129.5C 187.417,128.691 192.917,128.191 198.5,128C 200.07,126.603 201.404,125.103 202.5,123.5 Z"/></g>
<g><path style="opacity:1" fill="#c81c2c" d="M 20.5,103.5 C 21.3288,110.655 21.8288,117.989 22,125.5C 26.8772,124.564 31.8772,124.564 37,125.5C 37.4643,124.906 37.631,124.239 37.5,123.5C 38.4732,125.25 39.8065,126.75 41.5,128C 46.8229,128.499 52.1563,128.666 57.5,128.5C 59.2424,138.314 62.9091,147.314 68.5,155.5C 68.3764,156.107 68.0431,156.44 67.5,156.5C 65.1305,156.149 62.7972,155.982 60.5,156C 61.1667,156.333 61.8333,156.667 62.5,157C 58.6612,157.459 54.8279,157.959 51,158.5C 41.8164,158.454 32.6497,158.454 23.5,158.5C 22.8076,157.975 22.3076,157.308 22,156.5C 21.5001,168.829 21.3335,181.162 21.5,193.5C 20.671,186.011 20.171,178.344 20,170.5C 19.5291,172.246 18.8624,173.913 18,175.5C 11.3612,180.114 8.5279,186.448 9.5,194.5C 9.5,175.5 9.5,156.5 9.5,137.5C 10.3261,132.684 10.8261,127.684 11,122.5C 14.038,119.797 16.7046,116.797 19,113.5C 19.3333,115.167 19.6667,116.833 20,118.5C 20.4993,113.511 20.6659,108.511 20.5,103.5 Z"/></g>
<g><path style="opacity:1" fill="#f64657" d="M 225.5,11.5 C 232.756,18.015 237.423,26.015 239.5,35.5C 239.5,91.5 239.5,147.5 239.5,203.5C 239.167,203.5 238.833,203.5 238.5,203.5C 238.5,189.5 238.5,175.5 238.5,161.5C 238.667,137.164 238.5,112.831 238,88.5C 234.878,88.7579 232.211,90.4246 230,93.5C 228.782,127.156 228.282,160.822 228.5,194.5C 225.5,214.167 214.167,225.5 194.5,228.5C 160.478,228.167 126.478,228.834 92.5,230.5C 91.1851,232.316 89.6851,233.983 88,235.5C 87.5304,236.577 87.6971,237.577 88.5,238.5C 73.8182,238.833 59.1515,238.499 44.5,237.5C 47.1241,234.041 50.4575,231.541 54.5,230C 50.6437,229.823 46.977,229.323 43.5,228.5C 62.8362,228.667 82.1695,228.5 101.5,228C 103.494,224.669 106.494,221.669 110.5,219C 105.316,218.826 100.316,218.326 95.5,217.5C 128.168,217.667 160.835,217.5 193.5,217C 206.77,214.564 214.437,206.731 216.5,193.5C 217.497,173.007 217.831,152.34 217.5,131.5C 217.334,124.492 217.5,117.492 218,110.5C 218.333,111.5 218.667,112.5 219,113.5C 220.257,111.254 222.09,109.921 224.5,109.5C 224.343,108.127 224.51,106.793 225,105.5C 225.333,106.167 225.667,106.833 226,107.5C 226.317,105.699 226.984,105.366 228,106.5C 228.667,83.8333 228.667,61.1667 228,38.5C 226.111,31.7176 222.945,25.7176 218.5,20.5C 218.281,19.325 218.614,18.325 219.5,17.5C 221.507,15.4668 223.507,13.4668 225.5,11.5 Z"/></g>
<g><path style="opacity:1" fill="#f42f48" d="M 238.5,161.5 C 237.638,166.586 235.138,170.92 231,174.5C 230.667,173.167 230.333,171.833 230,170.5C 229.829,178.677 229.329,186.677 228.5,194.5C 228.282,160.822 228.782,127.156 230,93.5C 232.211,90.4246 234.878,88.7579 238,88.5C 238.5,112.831 238.667,137.164 238.5,161.5 Z"/></g>
<g><path style="opacity:1" fill="#b30d17" d="M 216.5,193.5 C 214.437,206.731 206.77,214.564 193.5,217C 160.835,217.5 128.168,217.667 95.5,217.5C 77.8302,217.667 60.1635,217.5 42.5,217C 30.3439,213.682 23.3439,205.849 21.5,193.5C 21.3335,181.162 21.5001,168.829 22,156.5C 22.3076,157.308 22.8076,157.975 23.5,158.5C 32.6497,158.454 41.8164,158.454 51,158.5C 54.8279,157.959 58.6612,157.459 62.5,157C 61.8333,156.667 61.1667,156.333 60.5,156C 62.7972,155.982 65.1305,156.149 67.5,156.5C 64.5375,159.964 61.3709,163.297 58,166.5C 57.2751,169.377 57.7751,172.043 59.5,174.5C 61.6499,176.149 63.6499,177.982 65.5,180C 68.1667,182 70.8333,182 73.5,180C 76.682,176.651 80.0154,173.484 83.5,170.5C 91.5009,175.611 100.168,178.944 109.5,180.5C 109.334,185.844 109.501,191.177 110,196.5C 110.465,197.931 111.299,199.097 112.5,200C 118.608,202.61 124.108,201.776 129,197.5C 130.404,191.956 130.904,186.29 130.5,180.5C 139.715,178.976 148.215,175.642 156,170.5C 159.787,173.284 163.287,176.451 166.5,180C 167.729,180.781 169.062,181.281 170.5,181.5C 174.685,179.826 178.185,177.159 181,173.5C 182.373,171.305 182.706,168.971 182,166.5C 178.962,163.631 176.129,160.631 173.5,157.5C 174.641,156.661 175.974,155.994 177.5,155.5C 180.593,157.309 183.926,158.309 187.5,158.5C 196.52,158.494 205.52,158.494 214.5,158.5C 215.281,157.271 215.781,155.938 216,154.5C 216.5,167.496 216.667,180.496 216.5,193.5 Z"/></g>
<g><path style="opacity:1" fill="#f01e38" d="M 238.5,161.5 C 238.5,175.5 238.5,189.5 238.5,203.5C 234.5,222.833 222.833,234.5 203.5,238.5C 189.5,238.5 175.5,238.5 161.5,238.5C 166.633,238.212 170.633,235.879 173.5,231.5C 172.624,230.749 171.624,230.249 170.5,230C 178.677,229.829 186.677,229.329 194.5,228.5C 214.167,225.5 225.5,214.167 228.5,194.5C 229.329,186.677 229.829,178.677 230,170.5C 230.333,171.833 230.667,173.167 231,174.5C 235.138,170.92 237.638,166.586 238.5,161.5 Z"/></g>
<g><path style="opacity:1" fill="#e23546" d="M 21.5,193.5 C 23.3439,205.849 30.3439,213.682 42.5,217C 60.1635,217.5 77.8302,217.667 95.5,217.5C 100.316,218.326 105.316,218.826 110.5,219C 106.494,221.669 103.494,224.669 101.5,228C 82.1695,228.5 62.8362,228.667 43.5,228.5C 23.8496,225.516 12.5163,214.183 9.5,194.5C 8.5279,186.448 11.3612,180.114 18,175.5C 18.8624,173.913 19.5291,172.246 20,170.5C 20.171,178.344 20.671,186.011 21.5,193.5 Z"/></g>
<g><path style="opacity:1" fill="#ed4c5e" d="M 9.5,44.5 C 9.5,75.5 9.5,106.5 9.5,137.5C 9.5,156.5 9.5,175.5 9.5,194.5C 12.5163,214.183 23.8496,225.516 43.5,228.5C 46.977,229.323 50.6437,229.823 54.5,230C 50.4575,231.541 47.1241,234.041 44.5,237.5C 59.1515,238.499 73.8182,238.833 88.5,238.5C 112.833,238.5 137.167,238.5 161.5,238.5C 175.5,238.5 189.5,238.5 203.5,238.5C 203.5,238.833 203.5,239.167 203.5,239.5C 147.5,239.5 91.5,239.5 35.5,239.5C 16.5,234.5 4.5,222.5 -0.5,203.5C -0.5,193.5 -0.5,183.5 -0.5,173.5C 0.0320947,171.64 1.19876,169.64 3,167.5C 4.51221,166.743 5.84555,165.743 7,164.5C 7.33333,165.833 7.66667,167.167 8,168.5C 8.49998,139.835 8.66664,111.169 8.5,82.5C 8.17132,69.6557 8.50465,56.989 9.5,44.5 Z"/></g>
<g><path style="opacity:1" fill="#f42f48" d="M 194.5,228.5 C 186.677,229.329 178.677,229.829 170.5,230C 171.624,230.249 172.624,230.749 173.5,231.5C 170.633,235.879 166.633,238.212 161.5,238.5C 137.167,238.5 112.833,238.5 88.5,238.5C 87.6971,237.577 87.5304,236.577 88,235.5C 89.6851,233.983 91.1851,232.316 92.5,230.5C 126.478,228.834 160.478,228.167 194.5,228.5 Z"/></g>
</svg>
