<?xml version="1.0" encoding="UTF-8"?>
<!DOCTYPE svg PUBLIC "-//W3C//DTD SVG 1.1//EN" "http://www.w3.org/Graphics/SVG/1.1/DTD/svg11.dtd">
<svg xmlns="http://www.w3.org/2000/svg" version="1.1" width="96px" height="96px" style="shape-rendering:geometricPrecision; text-rendering:geometricPrecision; image-rendering:optimizeQuality; fill-rule:evenodd; clip-rule:evenodd" xmlns:xlink="http://www.w3.org/1999/xlink">
<g><path style="opacity:0.983" fill="#959da5" d="M 68.5,21.5 C 67.2464,24.0934 65.5798,26.4268 63.5,28.5C 57.0095,27.2405 52.0095,29.5739 48.5,35.5C 46.5,35.5 44.5,35.5 42.5,35.5C 39.9955,31.4917 36.4955,28.8251 32,27.5C 26.9284,28.2866 24.7617,31.2866 25.5,36.5C 21.2022,40.2964 17.0356,44.2964 13,48.5C 12.7679,47.2625 12.2679,46.2625 11.5,45.5C 11.6627,37.5141 14.3294,30.5141 19.5,24.5C 20.8333,23.8333 21.8333,22.8333 22.5,21.5C 28.5141,16.3294 35.5141,13.6627 43.5,13.5C 43.5,12.1667 43.5,10.8333 43.5,9.5C 44.8333,9.5 46.1667,9.5 47.5,9.5C 47.5,10.8333 47.5,12.1667 47.5,13.5C 55.4859,13.6627 62.4859,16.3294 68.5,21.5 Z"/></g>
<g><path style="opacity:1" fill="#63707b" d="M 22.5,21.5 C 21.8333,22.8333 20.8333,23.8333 19.5,24.5C 16.747,22.5812 16.9137,20.9145 20,19.5C 21.301,19.6387 22.1344,20.3054 22.5,21.5 Z"/></g>
<g><path style="opacity:1" fill="#66717c" d="M 42.5,35.5 C 38.5,37.5 35.5,40.5 33.5,44.5C 30.4728,42.1395 27.8062,39.4729 25.5,36.5C 24.7617,31.2866 26.9284,28.2866 32,27.5C 36.4955,28.8251 39.9955,31.4917 42.5,35.5 Z"/></g>
<g><path style="opacity:1" fill="#66717c" d="M 63.5,28.5 C 66.1672,35.287 64.1672,40.6203 57.5,44.5C 55.447,40.4469 52.447,37.4469 48.5,35.5C 52.0095,29.5739 57.0095,27.2405 63.5,28.5 Z"/></g>
<g><path style="opacity:0.978" fill="#8d959c" d="M 71.5,70.5 C 70.1667,71.1667 69.1667,72.1667 68.5,73.5C 62.4859,78.6706 55.4859,81.3373 47.5,81.5C 47.5,82.8333 47.5,84.1667 47.5,85.5C 46.1667,85.5 44.8333,85.5 43.5,85.5C 43.5,84.1667 43.5,82.8333 43.5,81.5C 35.626,81.479 28.7927,78.8123 23,73.5C 20.7783,76.3033 18.9449,76.1366 17.5,73C 17.6387,71.699 18.3054,70.8656 19.5,70.5C 22.0934,69.2464 24.4268,67.5798 26.5,65.5C 33.287,68.1672 38.6203,66.1672 42.5,59.5C 44.5,59.5 46.5,59.5 48.5,59.5C 52.0396,65.6152 57.0396,67.7819 63.5,66C 65.282,63.7569 65.782,61.2569 65,58.5C 62.9999,55.3343 60.4999,52.6676 57.5,50.5C 57.5,48.5 57.5,46.5 57.5,44.5C 64.1672,40.6203 66.1672,35.287 63.5,28.5C 65.5798,26.4268 67.2464,24.0934 68.5,21.5C 69.5849,19.4178 71.0849,19.0844 73,20.5C 73.7112,22.3668 73.2112,23.8668 71.5,25C 76.8123,30.7927 79.479,37.626 79.5,45.5C 80.8333,45.5 82.1667,45.5 83.5,45.5C 83.5,46.8333 83.5,48.1667 83.5,49.5C 82.1667,49.5 80.8333,49.5 79.5,49.5C 79.3373,57.4859 76.6706,64.4859 71.5,70.5 Z"/></g>
<g><path style="opacity:0.981" fill="#939ca3" d="M 25.5,36.5 C 27.8062,39.4729 30.4728,42.1395 33.5,44.5C 33.5,46.5 33.5,48.5 33.5,50.5C 27.5939,53.972 25.2606,58.972 26.5,65.5C 24.4268,67.5798 22.0934,69.2464 19.5,70.5C 14.3294,64.4859 11.6627,57.4859 11.5,49.5C 10.1667,49.5 8.83333,49.5 7.5,49.5C 7.5,48.1667 7.5,46.8333 7.5,45.5C 8.83333,45.5 10.1667,45.5 11.5,45.5C 12.2679,46.2625 12.7679,47.2625 13,48.5C 17.0356,44.2964 21.2022,40.2964 25.5,36.5 Z"/></g>
<g><path style="opacity:1" fill="#e93643" d="M 42.5,35.5 C 44.5,35.5 46.5,35.5 48.5,35.5C 52.447,37.4469 55.447,40.4469 57.5,44.5C 57.5,46.5 57.5,48.5 57.5,50.5C 55.5,54.5 52.5,57.5 48.5,59.5C 46.5,59.5 44.5,59.5 42.5,59.5C 38.4469,57.447 35.4469,54.447 33.5,50.5C 33.5,48.5 33.5,46.5 33.5,44.5C 35.5,40.5 38.5,37.5 42.5,35.5 Z"/></g>
<g><path style="opacity:1" fill="#65717c" d="M 33.5,50.5 C 35.4469,54.447 38.4469,57.447 42.5,59.5C 38.6203,66.1672 33.287,68.1672 26.5,65.5C 25.2606,58.972 27.5939,53.972 33.5,50.5 Z"/></g>
<g><path style="opacity:1" fill="#65707b" d="M 57.5,50.5 C 60.4999,52.6676 62.9999,55.3343 65,58.5C 65.782,61.2569 65.282,63.7569 63.5,66C 57.0396,67.7819 52.0396,65.6152 48.5,59.5C 52.5,57.5 55.5,54.5 57.5,50.5 Z"/></g>
<g><path style="opacity:0.946" fill="#63707b" d="M 71.5,70.5 C 74.9485,73.0723 78.9485,74.239 83.5,74C 88.8333,79 88.8333,84 83.5,89C 73.6984,91.0302 69.6984,87.1969 71.5,77.5C 70.4756,76.1482 69.4756,74.8149 68.5,73.5C 69.1667,72.1667 70.1667,71.1667 71.5,70.5 Z M 76.5,78.5 C 80.945,77.8735 82.6117,79.5402 81.5,83.5C 76.4838,85.1246 74.8171,83.4579 76.5,78.5 Z"/></g>
</svg>
